<svg xmlns="http://www.w3.org/2000/svg" width="198.295" height="35.612" viewBox="0 0 198.295 35.612">
  <g id="Color_logo_-_no_background" data-name="Color logo - no background" transform="translate(139.045 77.247)">
    <g id="SvgjsG1902" transform="translate(-139.045 -77.247)">
      <path id="Path_1" data-name="Path 1" d="M85.865,58.734a4.423,4.423,0,1,0-4.423-4.423,4.614,4.614,0,0,0,1.206,3.056l-5.389,5.71A4.46,4.46,0,0,0,74.2,61.831a4.255,4.255,0,0,0-3.016,1.206L65.8,58.091a2.871,2.871,0,0,0,.563-1.729A2.936,2.936,0,1,0,63.426,59.3a2.872,2.872,0,0,0,1.97-.764l5.389,4.946a4.467,4.467,0,0,0-.965,2.775,4.3,4.3,0,0,0,1.166,2.976L65.035,75.5A4.3,4.3,0,0,0,62.22,74.5a4.423,4.423,0,1,0,4.423,4.423,4.3,4.3,0,0,0-1.166-2.976l5.911-6.273A4.3,4.3,0,0,0,74.2,70.678h.2l.764,6.836a3.477,3.477,0,1,0,.684-.08h-.121L74.967,70.6a4.358,4.358,0,0,0,2.614-1.528L83.05,73.01a3.042,3.042,0,0,0-.4,1.488,2.936,2.936,0,1,0,2.936-2.936,2.859,2.859,0,0,0-2.172,1.005l-5.469-3.941a4.28,4.28,0,0,0,.684-2.332,4.354,4.354,0,0,0-.965-2.734l5.429-5.75A4.691,4.691,0,0,0,85.865,58.734Z" transform="translate(-57.796 -49.887)" fill="#fff"/>
    </g>
    <g id="SvgjsG1903" transform="translate(-86.965 -68.057)">
      <path id="Path_2" data-name="Path 2" d="M63.164,131.895a12.492,12.492,0,0,1-12.21,12.719h-9.9V119.176h9.9A12.514,12.514,0,0,1,63.164,131.895Zm-12.278,9.6a7.92,7.92,0,0,0,5.969-2.747,10.452,10.452,0,0,0,0-13.668,7.956,7.956,0,0,0-5.969-2.781H44.815v19.2Zm23.5-13.974c4.816,0,6.749,2.917,6.749,5.393v11.7H77.646v-1.832a6.013,6.013,0,0,1-4.748,2.137c-3.833,0-6.342-2.238-6.342-5.223,0-4.172,3.12-5.664,6.342-5.664h4.748v-1.119c0-1.051-.407-2.51-3.256-2.51a4.976,4.976,0,0,0-4,2.171L67.98,130.4A8.615,8.615,0,0,1,74.39,127.52Zm3.256,11.871v-2.51H73.372c-2.069,0-3.527,1.051-3.29,2.951.2,1.594,1.492,2.238,3.29,2.238C76.595,142.07,77.646,140.543,77.646,139.39Zm14.143,2.442a2.9,2.9,0,0,0,2.442-.1v2.713a3.738,3.738,0,0,1-2,.509,5.292,5.292,0,0,1-4.85-2.408c-1.017-1.7-1.017-2.612-1.017-5.257v-6.58H84.328v-2.849h2.035v-5.291h3.493v5.291h4.375v2.849H89.856v6.58C89.856,140.069,90.127,141.086,91.789,141.832Zm13.668-14.313c4.816,0,6.749,2.917,6.749,5.393v11.7h-3.493v-1.832a6.013,6.013,0,0,1-4.748,2.137c-3.833,0-6.342-2.238-6.342-5.223,0-4.172,3.12-5.664,6.342-5.664h4.748v-1.119c0-1.051-.407-2.51-3.256-2.51a4.976,4.976,0,0,0-4,2.171L99.047,130.4A8.615,8.615,0,0,1,105.458,127.52Zm3.256,11.871v-2.51H104.44c-2.069,0-3.527,1.051-3.29,2.951.2,1.594,1.492,2.238,3.29,2.238C107.662,142.07,108.714,140.543,108.714,139.39Zm27.2-.78,2.476,2.476A12.4,12.4,0,0,1,129,144.953a13.041,13.041,0,0,1,0-26.082,12.434,12.434,0,0,1,9.429,3.9l-2.476,2.476A8.331,8.331,0,0,0,129,121.991c-5.257,0-9.158,4.68-9.158,9.9,0,4.782,3.527,9.938,9.158,9.938C131.438,141.832,134.558,140.883,135.915,138.61Zm10.446-20.079v26.082h-3.527V118.532Zm4.85,18.993v-9.666H154.7v9.327c0,3.392,1.051,4.884,3.934,4.884,3.256,0,4.579-2.272,4.579-5.223v-8.988h3.493v16.755h-3.493V141.9c-.475,1.492-2.578,2.849-4.579,2.985C154.094,145.224,151.211,143.019,151.211,137.525Zm36.053-1.255v1.255H174.071c0,3.086,2.951,4.579,5.121,4.579a5.48,5.48,0,0,0,4.307-2.2l2.408,2.171c-1.119,1.526-2.951,2.883-6.715,2.883-5.427,0-8.751-3.7-8.751-8.683s3.222-8.717,8.411-8.717,7.563,2.883,8.276,7.089A8.791,8.791,0,0,1,187.264,136.27Zm-13.126-1.628H183.6c0-2.713-2.171-4.206-4.748-4.206S174.139,132.166,174.139,134.642Z" transform="translate(-41.05 -118.532)" fill="#fff"/>
    </g>
  </g>
</svg>
