<svg xmlns="http://www.w3.org/2000/svg" width="866.188" height="182.563" viewBox="0 0 866.188 182.563">
  <metadata><?xpacket begin="﻿" id="W5M0MpCehiHzreSzNTczkc9d"?>
<x:xmpmeta xmlns:x="adobe:ns:meta/" x:xmptk="Adobe XMP Core 5.6-c138 79.159824, 2016/09/14-01:09:01        ">
   <rdf:RDF xmlns:rdf="http://www.w3.org/1999/02/22-rdf-syntax-ns#">
      <rdf:Description rdf:about=""/>
   </rdf:RDF>
</x:xmpmeta>
<?xpacket end="w"?></metadata>
<defs>
    <style>
      .cls-1 {
        fill: #000;
        fill-rule: evenodd;
      }
    </style>
  </defs>
  <path id="bsx_copy" data-name="bsx copy" class="cls-1" d="M616.117,47.212c9.178,0,15.7-4.83,15.7-12.981,0-8.936-7.185-11.17-13.586-13.1-6.581-1.992-7.607-3.321-7.607-5.253,0-1.691,1.509-3.2,4.528-3.2,3.864,0,5.857,1.872,7.306,4.891l8.151-4.77a16.392,16.392,0,0,0-15.457-9.54c-7.306,0-14.189,4.71-14.189,12.861,0,8.091,6.159,11.11,12.438,12.861,6.34,1.751,8.755,2.777,8.755,5.374,0,1.63-1.147,3.442-5.736,3.442a8.854,8.854,0,0,1-8.876-5.857l-8.332,4.83C601.566,42.985,607.241,47.212,616.117,47.212Zm55.242-31.88c-4.287,0-7.065,1.57-8.755,3.985a8.985,8.985,0,0,0-7.91-3.985c-4.045,0-6.7,1.57-8.091,3.623V16.177h-9.057v30.19H646.6V29.339c0-3.562,1.691-5.676,4.71-5.676,2.9,0,4.347,1.932,4.347,4.951V46.366h9.057V29.339c0-3.562,1.691-5.676,4.71-5.676,2.9,0,4.347,1.932,4.347,4.951V46.366h9.057V27.83C682.831,20.283,678.3,15.331,671.359,15.331Zm40.809,0.845v2.838c-1.993-2.294-4.951-3.683-9-3.683-7.909,0-14.43,6.944-14.43,15.94s6.521,15.94,14.43,15.94c4.046,0,7-1.389,9-3.683v2.838h9.057V16.177h-9.057Zm-7.185,22.461c-4.166,0-7.185-2.838-7.185-7.366s3.019-7.366,7.185-7.366,7.185,2.838,7.185,7.366S709.149,38.638,704.983,38.638Zm33.142-17.087V16.177h-9.057v30.19h9.057V32.721c0-5.977,5.313-7.487,9.057-6.883V15.573C743.378,15.573,739.333,17.505,738.125,21.551Zm33.084,3.321V16.177H764.99V7.724l-9.057,2.717v5.736H751.1v8.695h4.83V35.558c0,8.453,3.442,12.015,15.276,10.808V38.155c-3.985.242-6.219,0-6.219-2.6V24.871h6.219ZM627.529,91.922a10.582,10.582,0,0,0,3.683-8.272c0-7.306-5.978-12.076-13.344-12.076H601.324V113.84h17.752c7.547,0,13.645-4.891,13.645-12.378A10.914,10.914,0,0,0,627.529,91.922Zm-9.661-11.291a3.744,3.744,0,0,1,0,7.487h-6.883V80.632h6.883Zm1.208,24.152h-8.091V96.692h8.091A4.046,4.046,0,0,1,619.076,104.783Zm39.482-21.133v16.484c0,4.287-2.295,6.219-5.615,6.219-2.9,0-5.253-1.751-5.253-5.494V83.651h-9.057v18.537c0,8.151,5.192,12.5,11.291,12.5,3.985,0,7-1.449,8.634-3.683v2.838h9.057V83.651h-9.057Zm25.173,8.815c0-1.087.966-1.691,2.536-1.691a4.385,4.385,0,0,1,4.046,2.657l7.728-4.166a13.209,13.209,0,0,0-11.774-6.46c-6.279,0-11.834,3.321-11.834,9.9,0,10.446,14.853,8.695,14.853,12.016,0,1.207-1.087,1.872-3.26,1.872a4.957,4.957,0,0,1-5.132-3.563l-7.85,4.468c2.355,4.891,6.944,7.185,12.982,7.185,6.521,0,12.559-2.958,12.559-9.9C698.585,93.613,683.731,95.907,683.731,92.466Zm25.114-11.472a5.434,5.434,0,1,0-5.434-5.434A5.489,5.489,0,0,0,708.845,80.994Zm-4.528,32.846h9.057V83.651h-9.057v30.19Zm34.594-31.035c-3.985,0-7,1.449-8.634,3.683V83.651H721.22v30.19h9.057V97.357c0-4.287,2.295-6.219,5.615-6.219,2.9,0,5.253,1.751,5.253,5.495V113.84H750.2V95.3C750.2,87.153,745.01,82.805,738.911,82.805Zm26.8,19.563h21.434a17.518,17.518,0,0,0,.362-3.623c0-9.117-6.521-15.94-15.336-15.94-9.54,0-16.061,6.944-16.061,15.94s6.4,15.94,16.725,15.94c5.736,0,10.2-2.113,13.163-6.219l-7.246-4.166a7.882,7.882,0,0,1-5.8,2.3C769.639,106.6,766.862,105.508,765.715,102.368Zm-0.182-6.762c0.846-3.079,3.14-4.77,6.582-4.77a6.215,6.215,0,0,1,6.4,4.77H765.533Zm35.68-3.14c0-1.087.966-1.691,2.536-1.691a4.384,4.384,0,0,1,4.045,2.657l7.729-4.166a13.21,13.21,0,0,0-11.774-6.46c-6.28,0-11.835,3.321-11.835,9.9,0,10.446,14.854,8.695,14.854,12.016,0,1.207-1.087,1.872-3.261,1.872a4.958,4.958,0,0,1-5.132-3.563l-7.849,4.468c2.354,4.891,6.943,7.185,12.981,7.185,6.521,0,12.559-2.958,12.559-9.9C816.066,93.613,801.213,95.907,801.213,92.466Zm27.649,0c0-1.087.966-1.691,2.536-1.691a4.383,4.383,0,0,1,4.045,2.657l7.729-4.166a13.209,13.209,0,0,0-11.774-6.46c-6.279,0-11.834,3.321-11.834,9.9,0,10.446,14.853,8.695,14.853,12.016,0,1.207-1.087,1.872-3.26,1.872a4.959,4.959,0,0,1-5.133-3.563l-7.849,4.468c2.355,4.891,6.944,7.185,12.982,7.185,6.52,0,12.558-2.958,12.558-9.9C843.715,93.613,828.862,95.907,828.862,92.466ZM616.117,182.159c9.178,0,15.7-4.83,15.7-12.981,0-8.936-7.185-11.171-13.586-13.1-6.581-1.992-7.607-3.32-7.607-5.253,0-1.69,1.509-3.2,4.528-3.2,3.864,0,5.857,1.872,7.306,4.891l8.151-4.77a16.393,16.393,0,0,0-15.457-9.54c-7.306,0-14.189,4.71-14.189,12.861,0,8.091,6.159,11.11,12.438,12.861,6.34,1.751,8.755,2.777,8.755,5.373,0,1.631-1.147,3.442-5.736,3.442a8.854,8.854,0,0,1-8.876-5.857l-8.332,4.831C601.566,177.933,607.241,182.159,616.117,182.159Zm36.826,0a15.94,15.94,0,1,0-16-15.94A15.823,15.823,0,0,0,652.943,182.159Zm0-8.815a7.127,7.127,0,1,1,6.944-7.125A6.772,6.772,0,0,1,652.943,173.344Zm22.335,7.97h9.057V137.237h-9.057v44.077Zm36.406-30.19v16.484c0,4.287-2.294,6.219-5.615,6.219-2.9,0-5.253-1.751-5.253-5.5V151.124h-9.057v18.537c0,8.151,5.193,12.5,11.291,12.5,3.985,0,7-1.449,8.634-3.683v2.838h9.057v-30.19h-9.057Zm34.592,8.695v-8.695h-6.219v-8.453L731,145.388v5.736h-4.83v8.695H731v10.687c0,8.453,3.442,12.015,15.276,10.808V173.1c-3.985.242-6.219,0-6.219-2.6V159.819h6.219Zm10.865-11.351a5.435,5.435,0,1,0-5.434-5.435A5.49,5.49,0,0,0,757.141,148.468Zm-4.529,32.846h9.057v-30.19h-9.057v30.19Zm31.395,0.845a15.94,15.94,0,1,0-16-15.94A15.824,15.824,0,0,0,784.007,182.159Zm0-8.815a7.127,7.127,0,1,1,6.944-7.125A6.771,6.771,0,0,1,784.007,173.344Zm40.026-23.065c-3.985,0-7,1.449-8.634,3.683v-2.838h-9.057v30.19H815.4V164.83c0-4.287,2.295-6.219,5.616-6.219,2.9,0,5.252,1.751,5.252,5.5v17.208h9.057V162.777C835.324,154.626,830.132,150.279,824.033,150.279Zm27.287,9.661c0-1.087.966-1.691,2.536-1.691a4.384,4.384,0,0,1,4.045,2.657l7.728-4.166a13.208,13.208,0,0,0-11.773-6.461c-6.28,0-11.835,3.321-11.835,9.9,0,10.446,14.854,8.695,14.854,12.016,0,1.207-1.087,1.871-3.261,1.871a4.958,4.958,0,0,1-5.132-3.562l-7.849,4.468c2.354,4.891,6.943,7.185,12.981,7.185,6.521,0,12.559-2.958,12.559-9.9C866.173,161.087,851.32,163.381,851.32,159.94ZM441.89,122.9l-0.264-.407-37.491,58.078H356.511l59.53-90.4L360.564,4.062h47.371l33.691,52.271L475.318,4.062h47.623l-0.314.484Zm-163.4,59.692q-42.052,0-75.742-31.06l23.558-28.787q28.625,25,52.945,25,10.889,0,17.1-4.672a14.982,14.982,0,0,0,6.206-12.626,16.372,16.372,0,0,0-.562-4.278v-48.1Q318.9,83.88,329.407,93.2q13.928,12.376,13.932,36.111T325.48,167.819Q307.621,182.593,278.489,182.592ZM272.41,34.617q-9.881,0-15.579,4.671a15.207,15.207,0,0,0-5.7,12.373c0,0.457.041,0.895,0.077,1.335h-0.194v49.939q-16.833-5.85-26.355-13.649-14.314-11.741-14.313-36.867t18.113-38.762Q246.567,0.022,273.676.021a109.075,109.075,0,0,1,35.465,6.061,95.125,95.125,0,0,1,30.9,17.171L320.034,52.04Q296.979,34.617,272.41,34.617ZM118.393,180.571H40.877V75.686h40.26V75.525h18q16.464,0,24.446-3.535t7.979-15.278q0-11.742-7.346-15.53T99.394,37.394H81.137V4.062H109.78q17.984,0,31.031,4.292T160.444,19.97q11.9,13.637,11.906,30.808,0,20.708-13.426,30.807A48.161,48.161,0,0,1,152.591,86q-1.775.888-6.333,2.9,16.464,3.539,26.218,14.772t9.753,27.9a47.381,47.381,0,0,1-12.666,32.575Q154.869,180.576,118.393,180.571ZM132.452,110.5q-9-3.912-28.752-3.914H80.395V147.24H107.5q16.968,0,25.458-4.167t8.487-16.414Q141.445,114.413,132.452,110.5ZM0,4.005h41v33.98H0V4.005ZM525.76,180.573H481.914l-26.522-42.634h42.846Z" transform="translate(0 -0.031)"/>
</svg>
